<svg width="18" height="22" viewBox="0 0 18 22" fill="none" xmlns="http://www.w3.org/2000/svg">
<g clip-path="url(#clip0)">
<path d="M15.0071 21.1199C13.8484 22.2771 12.5701 22.0967 11.3515 21.5511C10.0561 20.9945 8.87173 20.9593 7.50356 21.5511C5.79977 22.3079 4.8955 22.0879 3.86937 21.1199C-1.92396 14.9819 -1.06885 5.63196 5.51545 5.27996C7.11235 5.36796 8.2304 6.18856 9.17102 6.25676C10.5691 5.96416 11.9073 5.12596 13.4038 5.23596C15.2016 5.38556 16.5463 6.11596 17.4441 7.42935C13.7458 9.71735 14.6223 14.7333 18.0192 16.1413C17.3394 17.9783 16.4672 19.7933 15.005 21.1353L15.0071 21.1199ZM9.04275 5.21396C8.86959 2.48597 11.018 0.241972 13.4893 0.0219727C13.8292 3.16796 10.7102 5.52196 9.04275 5.21396Z" fill="white"/>
</g>
<defs>
<clipPath id="clip0">
<rect width="18" height="22" fill="white"/>
</clipPath>
</defs>
</svg>
