<svg width="80" height="48" viewBox="0 0 80 48" fill="none" xmlns="http://www.w3.org/2000/svg">
<path d="M58.4437 11.0405L50.5957 3.19147C47.6725 0.270358 42.9187 0.268322 39.9986 3.19249L38.8379 4.3532L37.9521 3.87161C37.9134 3.85022 37.8747 3.83292 37.834 3.81663C35.2092 2.8005 32.4489 3.54783 30.0664 5.92932L27.6809 8.31488C24.4543 11.5414 24.0918 16.5579 26.5802 20.1938L19.2983 27.4747C19.1069 27.6661 19 27.9237 19 28.1945C19 28.4654 19.1069 28.724 19.2983 28.9144L31.0856 40.7017C31.277 40.8931 31.5356 41 31.8055 41C32.0753 41 32.3349 40.8931 32.5253 40.7017L40.0373 33.1886C41.0137 33.6285 42.0624 33.8555 43.1152 33.8555C45.0335 33.8555 46.9537 33.1255 48.4148 31.6655L58.4437 21.6365C61.3648 18.7154 61.3648 13.9616 58.4437 11.0405ZM25.8431 23.8113L29.2916 27.2609C29.6001 27.5694 29.7701 27.9787 29.7701 28.4165C29.7701 28.8533 29.6001 29.2636 29.2906 29.5731C28.6726 30.1912 27.5943 30.1881 26.9783 29.5731L23.5298 26.1246L25.8431 23.8113ZM31.8055 38.5421L21.4578 28.1945L22.0901 27.5633L25.5387 31.0118C26.232 31.7062 27.1545 32.088 28.135 32.088C29.1155 32.088 30.0379 31.7052 30.7303 31.0118C31.4236 30.3184 31.8065 29.396 31.8065 28.4155C31.8065 27.434 31.4247 26.5115 30.7303 25.8192L27.2818 22.3706L27.9018 21.7506L37.8177 31.6655C37.9633 31.8121 38.1171 31.9434 38.2708 32.0748L31.8055 38.5421ZM57.004 20.1979L46.9751 30.2268C44.8461 32.3548 41.3854 32.3527 39.2584 30.2268L29.1206 20.0889C26.2717 17.2401 26.2717 12.6034 29.1206 9.75558L31.5061 7.37002C32.8022 6.0739 34.1676 5.41413 35.5228 5.41413C36.0319 5.41413 36.5389 5.50678 37.0398 5.69412L37.3361 5.85397L32.9916 10.1995C32.5935 10.5976 32.5935 11.2411 32.9916 11.6392C33.3897 12.0373 34.0332 12.0373 34.4313 11.6392L41.4383 4.63116C43.5653 2.50319 47.027 2.50319 49.156 4.63116L57.004 12.4802C59.131 14.6082 59.131 18.0699 57.004 20.1979Z" fill="#1CC900"/>
</svg>
