<svg width="80" height="49" viewBox="0 0 80 49" fill="none" xmlns="http://www.w3.org/2000/svg">
<path d="M49.3474 16.3915C49.7617 16.392 50.172 16.321 50.5548 16.1828C50.9376 16.0445 51.2853 15.8416 51.578 15.5857L53.4913 13.9167C53.7844 13.6609 54.0168 13.3573 54.1754 13.0231C54.334 12.689 54.4156 12.3308 54.4156 11.9691C54.4156 11.6074 54.334 11.2493 54.1754 10.9151C54.0168 10.581 53.7844 10.2773 53.4913 10.0216C53.1982 9.76584 52.8503 9.56296 52.4675 9.42454C52.0846 9.28613 51.6742 9.21489 51.2597 9.21489C50.8453 9.21489 50.4349 9.28613 50.052 9.42454C49.6691 9.56296 49.3212 9.76584 49.0282 10.0216L47.1158 11.6906C46.8227 11.9463 46.5903 12.25 46.4317 12.5841C46.273 12.9183 46.1914 13.2764 46.1914 13.6381C46.1914 13.9998 46.273 14.358 46.4317 14.6922C46.5903 15.0263 46.8227 15.3299 47.1158 15.5857C47.4086 15.8417 47.7565 16.0447 48.1394 16.183C48.5224 16.3212 48.9329 16.3921 49.3474 16.3915V16.3915ZM48.3907 12.8032L50.3031 11.1343C50.5567 10.9128 50.9007 10.7884 51.2594 10.7883C51.6182 10.7882 51.9622 10.9125 52.2159 11.1339C52.4696 11.3552 52.6122 11.6554 52.6123 11.9685C52.6124 12.2815 52.47 12.5818 52.2164 12.8032L50.3031 14.473C50.1775 14.5826 50.0284 14.6695 49.8642 14.7288C49.7001 14.7881 49.5242 14.8186 49.3466 14.8186C49.169 14.8185 48.9931 14.788 48.829 14.7286C48.6649 14.6693 48.5158 14.5823 48.3903 14.4726C48.2647 14.363 48.1651 14.2328 48.0972 14.0896C48.0292 13.9464 47.9943 13.7929 47.9943 13.6379C47.9944 13.4828 48.0294 13.3293 48.0974 13.1861C48.1654 13.0429 48.2651 12.9128 48.3907 12.8032V12.8032Z" fill="#1CC900"/>
<path d="M30.047 25.978L26.4405 37.7813C26.4321 37.8088 26.4254 37.8366 26.4207 37.8647L24.7346 47.4262H21V49H25.5082V48.989C25.6893 48.9909 25.8669 48.9448 26.0172 48.8567C26.1676 48.7686 26.2838 48.6426 26.3503 48.4956L30.845 38.2983L35.4262 28.965L40.0174 38.3133L45.4272 48.5428C45.4994 48.6793 45.6148 48.7949 45.7599 48.8759C45.905 48.9569 46.0736 49 46.2459 49H50.7541V47.4262H46.9753L44.4228 37.0322C44.4158 37.0037 44.4071 36.9756 44.3966 36.948L40.0688 25.6066L45.3956 20.9568L49.8651 24.2995L43.2606 26.2211C43.0583 26.2804 42.8866 26.4003 42.7761 26.5596C42.6656 26.7189 42.6235 26.9073 42.6571 27.0912C42.6907 27.2751 42.798 27.4426 42.9599 27.564C43.1217 27.6853 43.3276 27.7527 43.541 27.754H43.5942L58.922 26.9671C59.099 26.9581 59.269 26.9038 59.4108 26.8109C59.5525 26.7181 59.6598 26.5908 59.7192 26.4451C59.7785 26.2993 59.7874 26.1415 59.7445 25.9914C59.7017 25.8413 59.6091 25.7055 59.4783 25.6011L48.6587 16.9453C48.6506 16.939 48.6479 16.9303 48.6397 16.924L42.3283 12.2027L36.8012 8.06839L44.1442 2.37209C44.3035 2.24711 44.4066 2.07671 44.4351 1.89141C44.4635 1.70612 44.4154 1.51803 44.2995 1.36085C44.1835 1.20367 44.0072 1.08766 43.8021 1.03361C43.597 0.979554 43.3766 0.990987 43.1803 1.06586L28.7541 6.57408C28.6195 6.62542 28.5014 6.70466 28.4099 6.80493C28.3184 6.90519 28.2564 7.02344 28.2292 7.1494C28.202 7.27536 28.2104 7.4052 28.2538 7.52765C28.2972 7.6501 28.3743 7.76144 28.4782 7.85199L37.8606 16.0427L30.1769 25.7325C30.118 25.8073 30.0741 25.8903 30.047 25.978V25.978ZM56.6896 25.5059L50.2942 25.834L51.9415 25.3548C52.0929 25.3107 52.2281 25.2323 52.3334 25.1277C52.4387 25.0231 52.5104 24.896 52.541 24.7594C52.5716 24.6227 52.5601 24.4814 52.5077 24.3499C52.4553 24.2184 52.3639 24.1014 52.2427 24.0108L46.6706 19.8402L48.0762 18.6135L56.6896 25.5059ZM30.6863 7.55455L38.6884 4.49906L34.8275 7.49396C34.7313 7.56854 34.6544 7.66026 34.6021 7.76293C34.5499 7.86561 34.5234 7.97686 34.5245 8.0892C34.5256 8.20155 34.5543 8.31238 34.6086 8.41426C34.6629 8.51613 34.7415 8.60667 34.8393 8.6798L40.5097 12.9211L38.9354 14.7538L30.6863 7.55455ZM39.7541 16.4228L41.882 13.9472L46.7238 17.5669L38.3953 24.8346C38.2769 24.9381 38.1938 25.0682 38.1555 25.2106C38.1171 25.3529 38.1249 25.5017 38.178 25.6404L42.67 37.402L43.6618 41.4522L41.662 37.6751L36.2521 26.6586C36.1826 26.5172 36.067 26.3966 35.9197 26.3119C35.7724 26.2271 35.5999 26.182 35.4235 26.182C35.2471 26.182 35.0746 26.2271 34.9273 26.3119C34.78 26.3966 34.6645 26.5172 34.5949 26.6586L29.1752 37.7018L27.6721 41.1099L28.1942 38.1457L31.7484 26.5154L39.7541 16.4228Z" fill="#1CC900"/>
</svg>
