<svg width="80" height="48" viewBox="0 0 80 48" fill="none" xmlns="http://www.w3.org/2000/svg">
<path d="M40 17C39.2089 17 38.4355 17.2346 37.7777 17.6741C37.1199 18.1136 36.6072 18.7384 36.3045 19.4693C36.0017 20.2002 35.9225 21.0044 36.0769 21.7804C36.2312 22.5563 36.6122 23.269 37.1716 23.8284C37.731 24.3878 38.4437 24.7688 39.2196 24.9231C39.9956 25.0775 40.7998 24.9983 41.5307 24.6955C42.2616 24.3928 42.8864 23.8801 43.3259 23.2223C43.7654 22.5645 44 21.7911 44 21C43.9988 19.9395 43.577 18.9228 42.8271 18.1729C42.0772 17.423 41.0605 17.0012 40 17V17ZM40 23C39.6044 23 39.2178 22.8827 38.8889 22.6629C38.56 22.4432 38.3036 22.1308 38.1522 21.7654C38.0009 21.3999 37.9613 20.9978 38.0384 20.6098C38.1156 20.2219 38.3061 19.8655 38.5858 19.5858C38.8655 19.3061 39.2219 19.1156 39.6098 19.0384C39.9978 18.9613 40.3999 19.0009 40.7654 19.1522C41.1308 19.3036 41.4432 19.56 41.6629 19.8889C41.8827 20.2178 42 20.6044 42 21C41.9994 21.5303 41.7885 22.0386 41.4136 22.4136C41.0386 22.7885 40.5303 22.9994 40 23V23Z" fill="#000"/>
<path d="M70.6745 38.7563C70.3793 38.4908 63.3945 32.3079 54.6649 32.3079C54.5993 32.3079 54.5334 32.3084 54.4678 32.3089C51.2126 32.3882 48.0177 33.2135 45.124 34.7226C47.1919 31.1485 49.2031 26.2784 49.2031 20.8312C49.2031 9.87719 41.0636 0.691783 40.7171 0.30632C40.6239 0.209391 40.5124 0.132339 40.3893 0.0797241C40.2661 0.0271093 40.1337 0 40 0C39.8663 0 39.7339 0.0271093 39.6107 0.0797241C39.4876 0.132339 39.3761 0.209391 39.2829 0.30632C38.9364 0.691783 30.7969 9.87719 30.7969 20.8312C30.7969 26.2782 32.808 31.1479 34.8757 34.722C31.982 33.2132 28.7872 32.3881 25.5322 32.3089C25.4659 32.3084 25.4014 32.3079 25.3351 32.3079C16.6062 32.3079 9.62067 38.4913 9.3255 38.7562C9.22452 38.8469 9.1434 38.9579 9.08735 39.0821C9.03131 39.2063 9.00158 39.3409 9.00006 39.4774C8.99855 39.6139 9.02529 39.7493 9.07856 39.8747C9.13184 40.0001 9.21047 40.1129 9.30942 40.2058C9.60056 40.4794 16.5412 46.9048 25.3633 46.999C25.429 46.9995 25.4946 47 25.5601 47C32.2819 47 37.7197 43.3297 40.0002 41.5126C42.2768 43.3277 47.7127 47 54.4399 47C54.505 47 54.5714 46.9995 54.6367 46.999C63.4588 46.9048 70.3994 40.4794 70.6906 40.2058C70.7895 40.1129 70.8682 40.0001 70.9214 39.8747C70.9747 39.7493 71.0014 39.6139 70.9999 39.4774C70.9984 39.3409 70.9687 39.2063 70.9126 39.0821C70.8566 38.9579 70.7755 38.8469 70.6745 38.7562L70.6745 38.7563ZM25.3836 45.0401C19.0257 44.9722 13.5562 41.1475 11.4983 39.5057C13.5747 37.9227 19.0518 34.2669 25.3392 34.2669C25.3964 34.2669 25.4541 34.2674 25.5118 34.2679C31.8789 34.3358 37.0871 38.1743 39.0081 39.7979C37.0502 41.38 31.7623 45.0898 25.3836 45.0401V45.0401ZM40 38.6654C38.0587 36.3363 32.7344 29.1854 32.7344 20.8312C32.7344 12.4861 38.0398 4.98127 40.0007 2.49292C41.9626 4.9784 47.2656 12.4717 47.2656 20.8312C47.2656 29.1854 41.9413 36.3363 40 38.6654ZM54.6164 45.0401C48.2502 45.0951 42.9498 41.38 40.9919 39.7979C42.9129 38.1742 48.1211 34.3357 54.4882 34.2678C54.5464 34.2674 54.6031 34.2669 54.6608 34.2669C60.9489 34.2669 66.428 37.9246 68.5029 39.5066C66.4497 41.1485 60.991 44.9722 54.6164 45.0401Z" fill="#000"/>
<path d="M19.2628 31C19.9505 30.7931 20.6611 30.6145 21.3937 30.4729C19.1384 27.7993 17.3832 24.7014 16.2204 21.3423C18.4899 20.9765 24.0742 20.4618 29 22.9969C28.9229 22.2473 28.8776 21.4856 28.8641 20.7118C22.1891 17.7693 15.0699 19.4945 14.7358 19.5786C14.6101 19.6102 14.4917 19.6683 14.3878 19.7493C14.284 19.8303 14.1968 19.9326 14.1314 20.05C14.0661 20.1674 14.024 20.2975 14.0077 20.4324C13.9913 20.5674 14.0011 20.7044 14.0364 20.8353C15.1423 24.5452 16.9168 27.9963 19.2628 31V31Z" fill="#000"/>
<path d="M63.7796 21.3346C62.6121 24.6984 60.846 27.7989 58.5751 30.4712C59.3056 30.6155 60.0159 30.795 60.7055 31C63.0675 27.9974 64.853 24.5437 65.9636 20.8294C65.9989 20.6989 66.0086 20.5623 65.9923 20.4278C65.976 20.2933 65.9339 20.1637 65.8686 20.0467C65.8032 19.9297 65.716 19.8277 65.6122 19.747C65.5083 19.6663 65.3899 19.6084 65.2642 19.5768C64.9299 19.493 57.8107 17.7732 51.1359 20.7062C51.1235 21.4772 51.0782 22.2364 51 22.9839C55.9259 20.4571 61.5103 20.9701 63.7796 21.3346Z" fill="#000"/>
</svg>
