<svg width="80" height="49" viewBox="0 0 80 49" fill="none" xmlns="http://www.w3.org/2000/svg">
<path d="M24.7573 48.0029C22.7475 48.0029 21.5454 47.7266 21.438 47.7012C18.4536 46.7168 16.7065 45.2256 16.1626 43.248C15.5415 40.9922 16.7397 38.6172 19.0766 37.4736C24.1694 34.9805 29.4321 36.4941 31.4868 37.2744L33.1089 34.2705C34.2251 32.4238 34.1763 30.2275 32.9878 27.7002C32.3862 26.4189 31.438 25.1738 30.1684 23.9971C29.3598 23.248 28.4995 22.3232 27.6108 21.25C24.7134 17.7441 24.4946 12.9814 27.0669 9.40039C31.104 3.78223 39.2602 0.229492 39.605 0.0810547C39.7339 0.0263672 39.8677 0 39.9995 0C40.0005 0 40.0005 0 40.0005 0C40.0005 0 40.0005 0 40.0015 0C40.1333 0 40.2671 0.0263672 40.395 0.0810547C40.7407 0.229492 48.8979 3.78223 52.9341 9.40039C55.5073 12.9824 55.2886 17.7441 52.3901 21.25C51.4985 22.3271 50.6382 23.252 49.8325 23.9971C48.5649 25.1719 47.6157 26.418 47.0132 27.7002C45.8247 30.2275 45.7759 32.4238 46.8677 34.2285L48.5141 37.2744C50.5669 36.4951 55.8306 34.9814 60.9253 37.4736C63.2612 38.6182 64.4595 40.9922 63.8393 43.2471C63.2944 45.2266 61.5454 46.7168 58.644 47.6777C58.3227 47.7588 52.5806 49.0752 44.5991 45.7266L40.0005 43.6836L35.4214 45.7188C30.9897 47.5771 27.2524 48.0029 24.7573 48.0029ZM42.3403 42.5342L45.3921 43.8906C52.7593 46.9805 58.0454 45.7695 58.0962 45.7559C60.2436 45.041 61.5542 44.0107 61.9116 42.7168C62.2729 41.4023 61.5054 39.9854 60.0464 39.2705C54.5884 36.5986 48.6792 39.3613 48.5054 39.4443L42.3403 42.5342ZM21.9858 45.7793C22.0063 45.7793 27.3257 46.9453 34.6284 43.8828L37.6606 42.5342L31.4966 39.4453C31.314 39.3584 25.3823 36.6123 19.9556 39.2705C18.4956 39.9854 17.729 41.4023 18.0903 42.7168C18.4468 44.0107 19.7573 45.041 21.9858 45.7793ZM33.3052 38.1143L40.0005 41.4707L46.6948 38.1152L45.1323 35.2217C43.7173 32.8857 43.7339 29.9756 45.2026 26.8486C45.9155 25.334 47.0161 23.8809 48.4731 22.5303C49.2143 21.8438 50.0132 20.9844 50.8491 19.9746C53.1958 17.1377 53.3764 13.4443 51.3091 10.5664C50.4194 9.32715 49.2866 8.1875 48.0786 7.16895C50.1997 9.91895 51.7095 13.1592 50.7837 16.2773C50.7661 16.335 50.7436 16.3916 50.7163 16.4453C49.4897 18.8594 45.6919 22.9248 40.0005 21.3174C34.31 22.9248 30.5122 18.8604 29.2847 16.4453C29.2573 16.3916 29.2348 16.335 29.2173 16.2773C28.2915 13.1592 29.8003 9.91992 31.9214 7.16992C30.7143 8.1875 29.5815 9.32812 28.6919 10.5674C26.6255 13.4434 26.8061 17.1367 29.1518 19.9756C29.9848 20.9805 30.7837 21.8408 31.5278 22.5303C32.9868 23.8818 34.0874 25.335 34.7983 26.8496C36.2671 29.9756 36.2837 32.8857 34.8442 35.2637L33.3052 38.1143ZM40.0005 7.75391C42.7739 7.75391 45.0386 9.27637 45.771 11.6328C46.3931 13.6348 45.8589 15.8193 44.1821 18.124C44.1548 18.1621 44.1245 18.1982 44.0913 18.2324L42.6802 19.6865C46.5444 19.627 48.5718 16.2061 48.8921 15.6172C50.2065 10.8271 43.3891 4.68164 40.0005 2.22266C36.6128 4.68164 29.7954 10.8252 31.1089 15.6152C31.4282 16.1963 33.4722 19.6104 37.3179 19.6826L35.9106 18.2324C35.8774 18.1982 35.8472 18.1621 35.8198 18.124C34.144 15.8193 33.6089 13.6357 34.23 11.6338C34.9624 9.27637 37.227 7.75391 40.0005 7.75391ZM38.7866 18.3242L39.7397 18.834C39.7866 18.8594 39.8306 18.8877 39.8725 18.9199L40.0005 19.0176L40.1284 18.9199C40.1704 18.8877 40.2153 18.8594 40.2622 18.834L41.2153 18.3232L42.6059 16.8916C43.8589 15.1475 44.2807 13.5781 43.8608 12.2266C43.2944 10.4014 41.4272 9.75391 40.0005 9.75391C38.5737 9.75391 36.7065 10.4014 36.1401 12.2266C35.7212 13.5781 36.144 15.1475 37.396 16.8916L38.7866 18.3242Z" fill="#000"/>
</svg>
