<svg width="18" height="22" viewBox="0 0 18 22" fill="none" xmlns="http://www.w3.org/2000/svg">
<path d="M15.007 21.1199C13.8483 22.2771 12.5699 22.0967 11.3514 21.5511C10.0559 20.9945 8.87162 20.9593 7.50345 21.5511C5.79965 22.3079 4.89538 22.0879 3.86926 21.1199C-1.92407 14.982 -1.06897 5.63199 5.51533 5.27999C7.11224 5.36799 8.23029 6.18859 9.1709 6.25679C10.569 5.96419 11.9072 5.12599 13.4037 5.23599C15.2015 5.38559 16.5462 6.11599 17.444 7.42938C13.7457 9.71738 14.6222 14.7334 18.0191 16.1414C17.3393 17.9784 16.4671 19.7934 15.0049 21.1353L15.007 21.1199ZM9.04264 5.21399C8.86948 2.486 11.0179 0.242003 13.4892 0.0220032C13.8291 3.16799 10.7101 5.52199 9.04264 5.21399Z" fill="white"/>
</svg>
