<?xml version="1.0" encoding="UTF-8"?>
<svg fill="#fff" viewBox="0 0 19 18" xmlns="http://www.w3.org/2000/svg">
<path d="m3.3027 17.885h12.646c1.9531 0 2.9395-0.9766 2.9395-2.9102v-11.27c0-1.9238-0.9864-2.9004-2.9395-2.9004h-12.646c-1.9531 0-2.9492 0.97656-2.9492 2.9004v11.27c0 1.9336 0.99609 2.9102 2.9492 2.9102zm-0.09765-1.5918c-0.81055 0-1.25-0.4297-1.25-1.2696v-8.6425c0-0.84961 0.43945-1.2695 1.25-1.2695h12.832c0.8008 0 1.2598 0.41992 1.2598 1.2695v8.6425c0 0.8399-0.459 1.2696-1.2598 1.2696h-12.832zm4.6289-7.9004h0.53711c0.33203 0 0.43946-0.09766 0.43946-0.42969v-0.53711c0-0.33203-0.10743-0.42969-0.43946-0.42969h-0.53711c-0.33203 0-0.43945 0.09766-0.43945 0.42969v0.53711c0 0.33203 0.10742 0.42969 0.43945 0.42969zm3.0469 0h0.5468c0.3223 0 0.4297-0.09766 0.4297-0.42969v-0.53711c0-0.33203-0.1074-0.42969-0.4297-0.42969h-0.5468c-0.3223 0-0.4297 0.09766-0.4297 0.42969v0.53711c0 0.33203 0.1074 0.42969 0.4297 0.42969zm3.0566 0h0.5371c0.332 0 0.4395-0.09766 0.4395-0.42969v-0.53711c0-0.33203-0.1075-0.42969-0.4395-0.42969h-0.5371c-0.332 0-0.4395 0.09766-0.4395 0.42969v0.53711c0 0.33203 0.1075 0.42969 0.4395 0.42969zm-9.1602 2.998h0.53711c0.33203 0 0.43946-0.0976 0.43946-0.4199v-0.5371c0-0.332-0.10743-0.4297-0.43946-0.4297h-0.53711c-0.33203 0-0.43945 0.0977-0.43945 0.4297v0.5371c0 0.3223 0.10742 0.4199 0.43945 0.4199zm3.0566 0h0.53711c0.33203 0 0.43946-0.0976 0.43946-0.4199v-0.5371c0-0.332-0.10743-0.4297-0.43946-0.4297h-0.53711c-0.33203 0-0.43945 0.0977-0.43945 0.4297v0.5371c0 0.3223 0.10742 0.4199 0.43945 0.4199zm3.0469 0h0.5468c0.3223 0 0.4297-0.0976 0.4297-0.4199v-0.5371c0-0.332-0.1074-0.4297-0.4297-0.4297h-0.5468c-0.3223 0-0.4297 0.0977-0.4297 0.4297v0.5371c0 0.3223 0.1074 0.4199 0.4297 0.4199zm3.0566 0h0.5371c0.332 0 0.4395-0.0976 0.4395-0.4199v-0.5371c0-0.332-0.1075-0.4297-0.4395-0.4297h-0.5371c-0.332 0-0.4395 0.0977-0.4395 0.4297v0.5371c0 0.3223 0.1075 0.4199 0.4395 0.4199zm-9.1602 3.0078h0.53711c0.33203 0 0.43946-0.0976 0.43946-0.4199v-0.5469c0-0.3222-0.10743-0.4199-0.43946-0.4199h-0.53711c-0.33203 0-0.43945 0.0977-0.43945 0.4199v0.5469c0 0.3223 0.10742 0.4199 0.43945 0.4199zm3.0566 0h0.53711c0.33203 0 0.43946-0.0976 0.43946-0.4199v-0.5469c0-0.3222-0.10743-0.4199-0.43946-0.4199h-0.53711c-0.33203 0-0.43945 0.0977-0.43945 0.4199v0.5469c0 0.3223 0.10742 0.4199 0.43945 0.4199zm3.0469 0h0.5468c0.3223 0 0.4297-0.0976 0.4297-0.4199v-0.5469c0-0.3222-0.1074-0.4199-0.4297-0.4199h-0.5468c-0.3223 0-0.4297 0.0977-0.4297 0.4199v0.5469c0 0.3223 0.1074 0.4199 0.4297 0.4199z" fill="#fff"/>
</svg>
