<?xml version="1.0" encoding="UTF-8"?>
<svg fill="#fff" viewBox="0 0 17 19" xmlns="http://www.w3.org/2000/svg">
<path d="m8.4492 9.5059c2.207 0 4.0039-1.9629 4.0039-4.3555 0-2.3633-1.7871-4.2383-4.0039-4.2383-2.207 0-4.0137 1.8945-4.0137 4.2578 0.00976 2.3828 1.8066 4.3359 4.0137 4.3359zm0-1.4648c-1.3281 0-2.4609-1.2598-2.4609-2.8711 0-1.582 1.1133-2.793 2.4609-2.793s2.4512 1.1914 2.4512 2.7734c0 1.6113-1.1133 2.8906-2.4512 2.8906zm-5.791 10.029h11.572c1.5527 0 2.2949-0.4785 2.2949-1.5137 0-2.4609-3.0859-5.9277-8.086-5.9277-4.9902 0-8.0859 3.4668-8.0859 5.9277 0 1.0352 0.74218 1.5137 2.3047 1.5137zm-0.40039-1.4648c-0.23437 0-0.32226-0.0684-0.32226-0.2539 0-1.4844 2.3242-4.2578 6.5039-4.2578 4.1894 0 6.5136 2.7734 6.5136 4.2578 0 0.1855-0.0879 0.2539-0.3222 0.2539h-12.373z" fill="#fff"/>
</svg>
