<?xml version="1.0" encoding="UTF-8"?>
<svg fill="#fff" viewBox="0 0 19 21" xmlns="http://www.w3.org/2000/svg">
<path d="m6.0801 3.6504c0 1.6406 1.1133 3.0273 2.6367 3.418v5.8398c0 2.6563 0.50781 4.1602 0.89843 4.1602 0.38086 0 0.88867-1.4942 0.88867-4.1602v-5.8398c1.5137-0.38086 2.6367-1.7773 2.6367-3.418 0-1.9434-1.5722-3.5352-3.5254-3.5352-1.9629 0-3.5352 1.5918-3.5352 3.5352zm2.5293 0.19531c-0.64454 0-1.2109-0.55664-1.2109-1.2109 0-0.6543 0.5664-1.2109 1.2109-1.2109 0.66406 0 1.2012 0.55664 1.2012 1.2109 0 0.65429-0.53711 1.2109-1.2012 1.2109zm1.0058 16.68c5.6641 0 8.9551-1.9336 8.9551-4.043 0-2.4512-3.8476-3.9746-6.543-4.0332v1.4453c1.8653 0.0489 4.5997 1.0059 4.5997 2.3828 0 1.5918-2.9688 2.7051-7.0118 2.7051-4.0625 0-7.0117-1.1035-7.0117-2.7051 0-1.3769 2.7246-2.3339 4.5898-2.3828v-1.4453c-2.6856 0.0586-6.543 1.582-6.543 4.0332 0 2.1094 3.3008 4.043 8.9648 4.043z" fill="#fff"/>
</svg>
