<svg width="97" height="36" viewBox="0 0 97 36" fill="none" xmlns="http://www.w3.org/2000/svg">
<g clip-path="url(#clip0)">
<path d="M90.3036 36H0L3.75368 15.3498L6.55355 0H96.8571L86.7807 18.1379L90.3036 36Z" fill="#5FE487"/>
<path d="M13.6454 8.71585H28.8755C32.783 8.71585 34.5829 10.8146 34.0753 13.6793C33.5368 16.6818 30.8139 18.3976 27.1833 18.3976L25.2449 18.4282V18.4895C29.8293 18.7805 31.3677 21.3848 33.2753 27.5124H26.6448C24.245 21.2622 23.5681 19.9448 20.6143 19.9448H17.1068L15.7838 27.5124H10.3225L13.6454 8.71585ZM26.6756 15.8239C27.7063 15.8239 28.2909 15.441 28.4755 14.4605C28.6448 13.4648 28.1832 13.0665 27.1525 13.0665H18.2606L17.7991 15.8239H26.6756Z" fill="#003121"/>
<path d="M38.352 8.71585H57.3511L56.5358 13.3269H42.9825L42.6133 15.5022H54.582L53.7974 19.8835H41.8287L41.2903 22.8861H54.8435L54.0282 27.4971H35.0444L38.352 8.71585Z" fill="#003121"/>
<path d="M56.3051 18.1065C57.3359 12.178 62.5356 8.28693 69.3968 8.28693C76.2734 8.28693 80.181 11.6878 79.2579 16.8963H73.7659C73.9505 14.4759 71.9044 12.898 68.5969 12.898C65.0124 12.898 62.2895 14.9661 61.751 18.1065C61.1818 21.2469 63.151 23.315 66.7354 23.315C70.1045 23.315 72.7198 21.7371 73.3351 19.3167H78.8272C77.9041 24.5252 72.7967 27.9261 65.9201 27.9261C59.0435 27.9261 55.2436 24.035 56.3051 18.1065Z" fill="#003121"/>
</g>
<defs>
<clipPath id="clip0">
<rect width="96.8571" height="36" fill="white"/>
</clipPath>
</defs>
</svg>
